<mxfile host="app.diagrams.net" modified="2024-03-24T14:25:53.780Z" agent="Mozilla/5.0 (Macintosh; Intel Mac OS X 10_15_7) AppleWebKit/537.36 (KHTML, like Gecko) Chrome/122.0.0.0 Safari/537.36" etag="BUaq-rdfuBvWIFIjKB9U" version="24.1.0" type="github">
  <diagram name="第 1 页" id="lusD07U8qm4CnRnHMBhV">
    <mxGraphModel dx="791" dy="585" grid="1" gridSize="10" guides="1" tooltips="1" connect="1" arrows="1" fold="1" page="1" pageScale="1" pageWidth="827" pageHeight="1169" math="0" shadow="0">
      <root>
        <mxCell id="0" />
        <mxCell id="1" parent="0" />
        <mxCell id="HgZsM_6zQbQMxV9CHbU4-1" value="" style="rounded=1;whiteSpace=wrap;html=1;sketch=1;hachureGap=4;jiggle=2;curveFitting=1;" parent="1" vertex="1">
          <mxGeometry x="230" y="280" width="120" height="60" as="geometry" />
        </mxCell>
        <mxCell id="HgZsM_6zQbQMxV9CHbU4-2" value="" style="curved=1;endArrow=classic;html=1;rounded=0;sketch=1;hachureGap=4;jiggle=2;curveFitting=1;entryX=0.643;entryY=0.008;entryDx=0;entryDy=0;entryPerimeter=0;dashed=1;" parent="1" target="HgZsM_6zQbQMxV9CHbU4-31" edge="1">
          <mxGeometry width="50" height="50" relative="1" as="geometry">
            <mxPoint x="350" y="310" as="sourcePoint" />
            <mxPoint x="430" y="260" as="targetPoint" />
            <Array as="points">
              <mxPoint x="400" y="310" />
              <mxPoint x="420" y="320" />
            </Array>
          </mxGeometry>
        </mxCell>
        <mxCell id="HgZsM_6zQbQMxV9CHbU4-31" value="List" style="swimlane;fontStyle=0;childLayout=stackLayout;horizontal=1;startSize=30;horizontalStack=0;resizeParent=1;resizeParentMax=0;resizeLast=0;collapsible=1;marginBottom=0;whiteSpace=wrap;html=1;sketch=1;hachureGap=4;jiggle=2;curveFitting=1;" parent="1" vertex="1">
          <mxGeometry x="320" y="410" width="140" height="120" as="geometry" />
        </mxCell>
        <mxCell id="HgZsM_6zQbQMxV9CHbU4-32" value="stucr s" style="text;strokeColor=none;fillColor=none;align=left;verticalAlign=middle;spacingLeft=4;spacingRight=4;overflow=hidden;points=[[0,0.5],[1,0.5]];portConstraint=eastwest;rotatable=0;whiteSpace=wrap;html=1;" parent="HgZsM_6zQbQMxV9CHbU4-31" vertex="1">
          <mxGeometry y="30" width="140" height="30" as="geometry" />
        </mxCell>
        <mxCell id="HgZsM_6zQbQMxV9CHbU4-33" value="Item 2" style="text;strokeColor=none;fillColor=none;align=left;verticalAlign=middle;spacingLeft=4;spacingRight=4;overflow=hidden;points=[[0,0.5],[1,0.5]];portConstraint=eastwest;rotatable=0;whiteSpace=wrap;html=1;" parent="HgZsM_6zQbQMxV9CHbU4-31" vertex="1">
          <mxGeometry y="60" width="140" height="30" as="geometry" />
        </mxCell>
        <mxCell id="HgZsM_6zQbQMxV9CHbU4-34" value="Item 3" style="text;strokeColor=none;fillColor=none;align=left;verticalAlign=middle;spacingLeft=4;spacingRight=4;overflow=hidden;points=[[0,0.5],[1,0.5]];portConstraint=eastwest;rotatable=0;whiteSpace=wrap;html=1;" parent="HgZsM_6zQbQMxV9CHbU4-31" vertex="1">
          <mxGeometry y="90" width="140" height="30" as="geometry" />
        </mxCell>
      </root>
    </mxGraphModel>
  </diagram>
</mxfile>
